<?xml version="1.0" encoding="UTF-8" standalone="no"?>
<!-- Created with Inkscape (http://www.inkscape.org/) -->

<svg
   xmlns:dc="http://purl.org/dc/elements/1.1/"
   xmlns:cc="http://creativecommons.org/ns#"
   xmlns:rdf="http://www.w3.org/1999/02/22-rdf-syntax-ns#"
   xmlns:svg="http://www.w3.org/2000/svg"
   xmlns="http://www.w3.org/2000/svg"
   xmlns:sodipodi="http://sodipodi.sourceforge.net/DTD/sodipodi-0.dtd"
   xmlns:inkscape="http://www.inkscape.org/namespaces/inkscape"
   width="25"
   height="20"
   viewBox="0 0 25.000001 20"
   id="svg2"
   version="1.1"
   inkscape:version="0.91 r13725"
   style="shape-rendering:crispEdges"
   sodipodi:docname="basket.svg">
  <defs
     id="defs4" />
  <sodipodi:namedview
     id="base"
     pagecolor="#ffffff"
     bordercolor="#666666"
     borderopacity="1.0"
     inkscape:pageopacity="0.0"
     inkscape:pageshadow="2"
     inkscape:zoom="11.313708"
     inkscape:cx="31.805032"
     inkscape:cy="2.3112405"
     inkscape:document-units="px"
     inkscape:current-layer="layer1-9"
     showgrid="false"
     units="px"
     fit-margin-top="0"
     fit-margin-left="0"
     fit-margin-right="0"
     fit-margin-bottom="0"
     inkscape:window-width="1366"
     inkscape:window-height="706"
     inkscape:window-x="-8"
     inkscape:window-y="2"
     inkscape:window-maximized="1" />
  <metadata
     id="metadata7">
    <rdf:RDF>
      <cc:Work
         rdf:about="">
        <dc:format>image/svg+xml</dc:format>
        <dc:type
           rdf:resource="http://purl.org/dc/dcmitype/StillImage" />
        <dc:title></dc:title>
      </cc:Work>
    </rdf:RDF>
  </metadata>
  <g
     inkscape:label="Layer 1"
     inkscape:groupmode="layer"
     id="layer1"
     transform="translate(-242.74542,-110.1524)">
    <g
       style="fill:#0000ff"
       transform="matrix(0.59442102,0,0,0.59442102,0.77350866,266.73951)"
       id="g3341">
      <title
         id="title3343">Layer 1</title>
      <g
         style="fill:#ffffff"
         id="layer1-9">
        <g
           id="g4243"
           transform="matrix(0.09412197,0,0,0.08000293,407.07161,-264.47927)"
           style="fill:#ffffff">
          <g
             id="g4203"
             style="fill:#ffffff">
            <path
               id="path4205"
               d="m 444.09,93.103 c -2.698,-3.699 -7.006,-5.888 -11.584,-5.888 l -322.586,0 c -0.625,0 -1.249,0.038 -1.85,0.119 L 94.794,49.064 c -1.376,-3.958 -4.406,-7.113 -8.3,-8.646 L 19.586,14.134 c -7.374,-2.887 -15.695,0.735 -18.591,8.1 -2.891,7.369 0.73,15.695 8.1,18.591 l 60.768,23.872 71.79769,210.04553 c -1.62459,3.79184 -3.49003,8.06555 -4.74869,11.54047 l -21.506,59.739 c -1.318,3.663 -0.775,7.733 1.468,10.916 2.24,3.183 5.883,5.078 9.773,5.078 l 11.044,0 c -6.844,7.616 -11.044,17.646 -11.044,28.675 0,23.718 19.298,43.012 43.012,43.012 23.714,0 43.012,-19.294 43.012,-43.012 0,-11.029 -4.2,-21.059 -11.044,-28.675 l 93.776,0 c -6.847,7.616 -11.048,17.646 -11.048,28.675 0,23.718 19.294,43.012 43.013,43.012 23.718,0 43.012,-19.294 43.012,-43.012 0,-11.029 -4.2,-21.059 -11.043,-28.675 l 13.433,0 c 6.599,0 11.947,-5.349 11.947,-11.948 0,-6.599 -5.349,-11.947 -11.947,-11.947 l -229.123,0 13.24918,-35.84603 c 2.69747,-0.0153 3.64782,0.002 5.59282,0.002 l 210.278,0 c 6.234,0 11.751,-4.027 13.65,-9.959 l 59.739,-186.387 c 1.401,-4.364 0.632,-9.129 -2.066,-12.828 z"
               inkscape:connector-curvature="0"
               style="fill:#ffffff"
               sodipodi:nodetypes="ssscccccccccccscsssccssscsssccssccs" />
          </g>
          <g
             id="g4207"
             style="fill:#ffffff" />
          <g
             id="g4209"
             style="fill:#ffffff" />
          <g
             id="g4211"
             style="fill:#ffffff" />
          <g
             id="g4213"
             style="fill:#ffffff" />
          <g
             id="g4215"
             style="fill:#ffffff" />
          <g
             id="g4217"
             style="fill:#ffffff" />
          <g
             id="g4219"
             style="fill:#ffffff" />
          <g
             id="g4221"
             style="fill:#ffffff" />
          <g
             id="g4223"
             style="fill:#ffffff" />
          <g
             id="g4225"
             style="fill:#ffffff" />
          <g
             id="g4227"
             style="fill:#ffffff" />
          <g
             id="g4229"
             style="fill:#ffffff" />
          <g
             id="g4231"
             style="fill:#ffffff" />
          <g
             id="g4233"
             style="fill:#ffffff" />
          <g
             id="g4235"
             style="fill:#ffffff" />
        </g>
      </g>
    </g>
  </g>
</svg>
