<?xml version="1.0" encoding="utf-8"?>
<!-- Generator: Adobe Illustrator 23.0.1, SVG Export Plug-In . SVG Version: 6.00 Build 0)  -->
<svg version="1.1" id="Layer_1" xmlns="http://www.w3.org/2000/svg" xmlns:xlink="http://www.w3.org/1999/xlink" x="0px" y="0px"
	 viewBox="0 0 1920 121" style="enable-background:new 0 0 1920 121;" xml:space="preserve">
<style type="text/css">
	.st0{fill:none;}
	.st1{fill:#FFFFFF;}
	.st2{clip-path:url(#SVGID_2_);fill:#FFFFFF;}
	.st3{opacity:0.2;}
	.st4{clip-path:url(#SVGID_4_);fill:url(#SVGID_5_);}
</style>
<pattern  y="121" width="226.9" height="229.3" patternUnits="userSpaceOnUse" id="New_Pattern" viewBox="12 -237.7 226.9 229.3" style="overflow:visible;">
	<g>
		<rect x="12" y="-237.7" class="st0" width="226.9" height="229.3"/>
		<g>
			
				<rect x="230.4" y="-16.9" transform="matrix(-1.238955e-08 -1 1 -1.238955e-08 247.2928 230.3788)" class="st1" width="16.9" height="16.9"/>
		</g>
		<g>
			<polygon class="st1" points="67.1,0 57.3,-16.9 47.6,0 			"/>
			<path class="st1" d="M185-8.5L185-8.5c0-4.7,3.8-8.4,8.4-8.4h0c4.7,0,8.4,3.8,8.4,8.4v0c0,4.7-3.8,8.4-8.4,8.4h0
				C188.8,0,185-3.8,185-8.5z"/>
			<path class="st1" d="M94.3-8.5L94.3-8.5c0-4.7,3.8-8.4,8.4-8.4h0c4.7,0,8.4,3.8,8.4,8.4v0c0,4.7-3.8,8.4-8.4,8.4h0
				C98,0,94.3-3.8,94.3-8.5z"/>
			
				<rect x="3.5" y="-16.9" transform="matrix(-1.238955e-08 -1 1 -1.238955e-08 20.4105 3.4964)" class="st1" width="16.9" height="16.9"/>
			<polygon class="st1" points="157.8,-16.9 148.1,0 138.3,-16.9 			"/>
			
				<rect x="230.4" y="-16.9" transform="matrix(-1.238960e-08 -1 1 -1.238960e-08 247.2845 230.3704)" class="st1" width="16.9" height="16.9"/>
		</g>
		<g>
			
				<rect x="3.5" y="-16.9" transform="matrix(-1.238960e-08 -1 1 -1.238960e-08 20.4021 3.4881)" class="st1" width="16.9" height="16.9"/>
		</g>
		<g>
			
				<rect x="230.4" y="-246.2" transform="matrix(-1.238955e-08 -1 1 -1.238955e-08 476.5742 1.0974)" class="st1" width="16.9" height="16.9"/>
			
				<rect x="230.4" y="-154.5" transform="matrix(0.7071 -0.7071 0.7071 0.7071 173.2257 126.1056)" class="st1" width="16.9" height="16.9"/>
			<polygon class="st1" points="248.6,-183.4 238.8,-200.3 229.1,-183.4 			"/>
			<polygon class="st1" points="248.6,-62.8 238.8,-45.9 229.1,-62.8 			"/>
			<g>
				<circle class="st1" cx="232.4" cy="-100.3" r="2"/>
				<path class="st1" d="M234.4-93.8c0,0.2,0,0.5-0.1,0.7c-0.5-0.3-1-0.7-1.4-1.1c-0.4-0.4-0.7-0.8-1-1.3c0-0.1-0.1-0.1-0.1-0.2
					c0.2-0.1,0.5-0.1,0.7-0.1C233.5-95.8,234.4-94.9,234.4-93.8z"/>
				<path class="st1" d="M234.4-106.6c0,1.1-0.9,2-2,2c-0.2,0-0.5,0-0.7-0.1c0.3-0.4,0.6-0.8,0.9-1.2c0.4-0.4,0.7-0.7,1.2-1.1
					c0.1-0.1,0.3-0.2,0.5-0.3C234.3-107.1,234.4-106.9,234.4-106.6z"/>
				<path class="st1" d="M238.8-102.3c-1.1,0-2,0.9-2,2c0,1.1,0.9,2,2,2c1.1,0,2-0.9,2-2C240.8-101.4,239.9-102.3,238.8-102.3z"/>
				<path class="st1" d="M238.8-95.8c-1.1,0-2,0.9-2,2c0,1.1,0.9,2,2,2c1.1,0,2-0.9,2-2C240.8-94.9,239.9-95.8,238.8-95.8z"/>
				<path class="st1" d="M238.8-108.6c-1.1,0-2,0.9-2,2c0,1.1,0.9,2,2,2c1.1,0,2-0.9,2-2C240.8-107.7,239.9-108.6,238.8-108.6z"/>
			</g>
			
				<rect x="230.4" y="-17" transform="matrix(-1.238955e-08 -1 1 -1.238955e-08 247.351 230.3206)" class="st1" width="16.9" height="16.9"/>
		</g>
		<g>
			
				<rect x="48.9" y="-200.3" transform="matrix(-0.7071 0.7071 -0.7071 -0.7071 -37.8239 -368.1203)" class="st1" width="16.9" height="16.9"/>
			<polygon class="st1" points="67.1,-229.3 57.3,-246.2 47.6,-229.3 			"/>
			<g>
				<path class="st1" d="M53.9-62.7c0.4,0,0.8-0.1,1.2-0.5c0.4-0.3,0.7-0.6,1-0.9c0,0,0,0,0,0c0,0,0,0,0,0c0.1-0.1,0.1-0.1,0.2-0.2
					c0.3-0.3,0.6-0.7,1-0.7c0.3,0,0.6,0.3,1,0.7c0.1,0.1,0.1,0.1,0.2,0.2c0,0,0,0,0.1,0.1c0,0,0,0,0,0c0.3,0.3,0.6,0.7,1,0.9
					c0.4,0.3,0.8,0.5,1.2,0.5c0.3,0,0.6-0.1,0.9-0.2l0.1-0.1l-1.1-1l0,0c-0.2,0-0.3-0.1-0.5-0.2c-0.2-0.1-0.4-0.3-0.6-0.5l-0.3-0.3
					c-0.4-0.4-0.8-0.8-1.4-1.1c0,0-0.8-0.1-1.3,0c-0.4,0.2-1,0.7-1.3,1.1c-0.1,0.1-0.1,0.1-0.1,0.1L55-64.8
					c-0.2,0.2-0.4,0.4-0.6,0.5c-0.2,0.1-0.4,0.2-0.5,0.2l0,0l-1.1,1l0.1,0.1C53.2-62.8,53.5-62.7,53.9-62.7z"/>
				<path class="st1" d="M51.1-61c0.2,0.1,0.3,0.2,0.4,0.3l0,0c0.1,0.1,0.2,0.3,0.4,0.4c0.1,0.2,0.3,0.4,0.5,0.5
					c0.4,0.4,0.9,0.7,1.5,0.7c0.4,0,0.8-0.1,1.2-0.5c0.4-0.2,0.7-0.6,1-0.9l0.1-0.1c0,0,0,0,0,0c0,0,0,0,0,0
					c0.1-0.1,0.1-0.1,0.2-0.2c0.3-0.3,0.6-0.6,1-0.6c0.3,0,0.6,0.3,1,0.6c0.1,0.1,0.1,0.1,0.2,0.2c0,0,0,0.1,0.1,0.1l0.1,0.1
					c0.3,0.3,0.6,0.6,0.9,0.8c0.4,0.3,0.8,0.5,1.2,0.5c0.9,0,1.5-0.7,2-1.3c0.1-0.1,0.2-0.3,0.3-0.4l0,0c0.1-0.1,0.2-0.2,0.4-0.4
					l0.1-0.1L62.8-62L62.7-62c-0.1,0.1-0.3,0.2-0.4,0.3c0,0-0.1,0.1-0.1,0.1c-0.1,0.1-0.3,0.3-0.3,0.4l0,0c-0.4,0.4-0.7,0.8-1.1,0.8
					l0,0c-0.2,0-0.4-0.1-0.6-0.2c-0.2-0.2-0.4-0.4-0.7-0.6c0-0.1-0.1-0.1-0.1-0.1l-0.1-0.1c-0.4-0.4-0.8-0.8-1.3-1.1
					c-0.5-0.1-1-0.1-1.3,0c-0.6,0.2-1,0.7-1.3,1.1l-0.1,0.1c-0.1,0-0.1,0.1-0.1,0.1c-0.2,0.2-0.5,0.5-0.7,0.6
					c-0.2,0.2-0.4,0.2-0.6,0.2l0,0c-0.3,0-0.7-0.4-1-0.8l0,0c-0.1-0.1-0.2-0.2-0.3-0.4c0,0,0-0.1-0.1-0.1l0,0
					c-0.1-0.1-0.2-0.2-0.4-0.3L51.9-62L51.1-61L51.1-61z"/>
				<path class="st1" d="M51.1-57.3c0.1,0.1,0.3,0.2,0.4,0.3l0.4,0.4c0.5,0.6,1.1,1.2,2,1.2c0.4,0,0.8-0.1,1.2-0.5
					c0.4-0.3,0.7-0.6,1-0.9c0,0,0,0,0,0c0,0,0,0,0,0c0.1-0.1,0.1-0.1,0.2-0.2c0.3-0.3,0.6-0.7,1-0.7c0.3,0,0.7,0.3,1,0.7
					c0.1,0.1,0.1,0.1,0.2,0.2c0,0,0,0,0.1,0.1c0,0,0,0,0,0.1c0.3,0.3,0.6,0.7,1,0.9c0.4,0.3,0.8,0.5,1.2,0.5c0.9,0,1.5-0.7,2-1.2
					c0.1-0.1,0.2-0.3,0.3-0.4l0,0c0.1-0.1,0.3-0.3,0.4-0.3l0.2-0.2c0.2-0.1,0.4-0.2,0.6-0.2c0.6,0,1.1,0.5,1.6,1.1
					c0.6,0.6,1.3,1.3,2.1,1.3c0.3,0,0.6-0.1,0.9-0.2l0.1-0.1l-1-1l0,0c-0.3,0-0.7-0.3-1.1-0.7c-0.1-0.1-0.2-0.2-0.4-0.4
					c-0.6-0.6-1.3-1.3-2.3-1.3c-0.4,0-0.8,0.1-1.2,0.4l0,0c-0.3,0.2-0.5,0.4-0.8,0.7c0,0,0,0-0.1,0.1c-0.1,0.1-0.2,0.3-0.3,0.4
					c-0.4,0.4-0.7,0.8-1.1,0.8l0,0c-0.2,0-0.4-0.1-0.6-0.2c-0.2-0.1-0.3-0.3-0.5-0.4c-0.1-0.1-0.3-0.3-0.4-0.4l-0.1-0.1
					c-0.4-0.4-0.7-0.8-1.2-0.9c-0.3-0.1-0.9-0.2-1.3,0c-0.6,0.3-1,0.7-1.3,1c-0.1,0.1-0.2,0.1-0.2,0.2c-0.2,0.2-0.4,0.5-0.7,0.6
					c-0.2,0.2-0.4,0.2-0.6,0.2h0c-0.3,0-0.7-0.4-1.1-0.8c-0.1-0.1-0.2-0.2-0.3-0.4c0,0,0,0-0.1-0.1c-0.3-0.3-0.5-0.5-0.8-0.6l-0.1,0
					c-0.4-0.2-0.8-0.3-1.2-0.3c-1.1,0-1.9,0.8-2.5,1.4c-0.4,0.4-0.9,0.9-1.2,0.9l0,0l-1,1l0.1,0.1c0.3,0.2,0.6,0.2,0.9,0.2
					c0.9,0,1.5-0.6,2.1-1.3c0.5-0.6,1.1-1.1,1.6-1.1c0.2,0,0.4,0.1,0.6,0.2L51.1-57.3z"/>
				<path class="st1" d="M67.1-53.7c-0.1-0.1-0.2-0.2-0.4-0.4c-0.6-0.6-1.3-1.3-2.3-1.3c-0.4,0-0.8,0.1-1.2,0.4
					c-0.3,0.2-0.5,0.4-0.8,0.7c0,0,0,0,0,0c0,0,0,0,0,0l-0.1,0.1c-0.1,0.1-0.2,0.2-0.3,0.3l0,0c-0.4,0.4-0.7,0.8-1,0.8l0,0
					c-0.2,0-0.4-0.1-0.6-0.2c-0.2-0.2-0.4-0.4-0.7-0.6c0-0.1-0.1-0.1-0.1-0.1L59.3-54c-0.1-0.1-0.1-0.1-0.2-0.2
					c-0.3-0.4-0.7-0.8-1.2-0.9c-0.3-0.1-1-0.1-1.3,0c-0.5,0.2-0.9,0.6-1.2,0.9L55.4-54L55.3-54c-0.1,0-0.1,0.1-0.1,0.1
					c-0.2,0.2-0.5,0.5-0.7,0.6C54.2-53.1,54-53,53.8-53l0,0c-0.3,0-0.7-0.4-1-0.8l0,0c-0.1-0.1-0.2-0.2-0.3-0.3l-0.1-0.1
					c0,0,0,0,0-0.1l0,0c0,0,0-0.1-0.1-0.1c-0.2-0.2-1.1-1.1-1.9-1c-1.1,0.1-1.8,0.8-2.5,1.4c-1,0.9-1.5,1-1.5,1l1,1l0.1,0
					c0.5-0.2,0.9-0.6,1.3-1c0.5-0.6,1.1-1.1,1.6-1.1c0.2,0,0.4,0.1,0.6,0.2l0.2,0.2c0.1,0.1,0.2,0.2,0.3,0.3l0.1,0.1
					c0.1,0.1,0.2,0.3,0.3,0.4c0.5,0.6,1.1,1.2,2,1.2c0.4,0,0.8-0.1,1.2-0.5c0.4-0.3,0.7-0.6,1-0.9c0,0,0,0,0,0c0,0,0,0,0,0
					c0.1-0.1,0.1-0.1,0.2-0.2c0.3-0.3,0.6-0.6,1-0.6c0.3,0,0.6,0.2,0.9,0.5c0,0,0.1,0.1,0.1,0.1c0.1,0.1,0.1,0.1,0.2,0.2
					c0,0,0.1,0.1,0.1,0.1c0.3,0.3,0.6,0.7,1,0.9c0.4,0.3,0.8,0.5,1.2,0.5c0.9,0,1.5-0.7,2-1.2c0.1-0.1,0.2-0.3,0.3-0.4c0,0,0,0,0,0
					l0.1-0.1c0.1-0.1,0.2-0.2,0.3-0.3l0.2-0.2c0.2-0.1,0.4-0.2,0.6-0.2c0.5,0,1,0.4,1.5,0.9c0.5,0.4,0.9,1,1.5,1.2l0.1,0l1.1-1.1
					C68.4-52.9,67.9-53,67.1-53.7z"/>
				<path class="st1" d="M64.4-51.6c-0.4,0-0.8,0.1-1.2,0.4l0,0c-0.3,0.2-0.6,0.4-0.8,0.7c0,0,0,0-0.1,0.1c-0.1,0.1-0.2,0.3-0.3,0.4
					l0,0c-0.4,0.4-0.7,0.8-1.1,0.8l0,0c-0.2,0-0.4-0.1-0.6-0.2c-0.1-0.1-0.3-0.3-0.4-0.4c-0.1-0.2-0.3-0.3-0.4-0.4
					c-0.1-0.1-0.1-0.1-0.2-0.2c-0.3-0.4-0.7-0.8-1.2-0.9c-0.3-0.1-1-0.1-1.3,0c-0.5,0.2-0.9,0.6-1.3,1l-0.1,0.1
					c-0.1,0.1-0.2,0.1-0.2,0.2c-0.2,0.2-0.5,0.5-0.7,0.6c-0.2,0.2-0.4,0.2-0.6,0.2l0,0c-0.3,0-0.7-0.4-1.1-0.8
					c-0.1-0.1-0.2-0.2-0.3-0.4c0,0,0,0-0.1-0.1c-0.2-0.2-0.5-0.4-0.8-0.6l-0.1,0c-0.4-0.2-0.8-0.4-1.2-0.3c-0.8,0-1.4,0.4-1.8,0.8
					l-0.1,0.1l0.9,0.9l0.1-0.1c0.3-0.3,0.6-0.4,0.9-0.4c0.2,0,0.4,0.1,0.6,0.2l0.2,0.2c0.1,0.1,0.3,0.2,0.4,0.4l0,0
					c0.1,0.1,0.2,0.3,0.4,0.4c0.5,0.6,1.1,1.2,2,1.2c0.4,0,0.8-0.1,1.2-0.4c0.4-0.2,0.7-0.6,1-0.9l0.1-0.1c0,0,0,0,0,0c0,0,0,0,0,0
					c0.1-0.1,0.1-0.1,0.2-0.2c0.3-0.3,0.6-0.6,1-0.6c0.3,0,0.6,0.3,1,0.6c0.1,0.1,0.1,0.1,0.2,0.2c0,0,0,0.1,0.1,0.1l0,0
					c0.3,0.3,0.6,0.6,1,0.9c0.4,0.3,0.8,0.4,1.2,0.4c0.9,0,1.5-0.7,2-1.2l0.3-0.4l0,0c0.1-0.1,0.3-0.3,0.4-0.3l0.2-0.2
					c0.2-0.1,0.4-0.2,0.6-0.2c0.3,0,0.6,0.1,0.9,0.4l0.1,0.1l0.9-0.9l-0.1-0.1C65.6-51.4,65-51.6,64.4-51.6z"/>
				<path class="st1" d="M60.2-45.8c-0.2-0.1-0.4-0.3-0.6-0.5l-0.3-0.3c-0.1-0.1-0.1-0.1-0.2-0.2c-0.3-0.4-0.7-0.8-1.2-0.9
					c-0.3-0.1-1-0.1-1.3,0c-0.5,0.2-0.9,0.6-1.3,1L55-46.4c-0.2,0.2-0.4,0.4-0.6,0.5c-0.2,0.2-0.4,0.2-0.6,0.2l-0.3,0l1.1,1.1l0.1,0
					c0.1-0.1,0.2-0.1,0.3-0.2c0.4-0.3,0.7-0.6,1-0.9c0,0,0.1-0.1,0.1-0.1c0.1-0.1,0.1-0.1,0.2-0.2c0.3-0.3,0.6-0.7,1-0.7
					c0.3,0,0.6,0.3,1,0.6c0.1,0.1,0.1,0.1,0.2,0.2l0,0c0,0,0,0,0.1,0.1c0.3,0.3,0.6,0.7,1,0.9c0.1,0.1,0.2,0.2,0.4,0.2l0.1,0
					l1.1-1.1l-0.3,0C60.6-45.6,60.4-45.7,60.2-45.8z"/>
				<path class="st1" d="M58-44.1c-0.2-0.1-0.7-0.2-1.3,0c-0.3,0.1-0.6,0.3-0.9,0.6l-0.1,0.1l0.9,0.9l0.1-0.1
					c0.2-0.1,0.4-0.3,0.5-0.3c0.2,0,0.3,0.1,0.5,0.3l0.2,0.1l0.9-0.9l-0.1-0.1C58.6-43.7,58.3-43.9,58-44.1z"/>
			</g>
			<g>
				<path class="st1" d="M99.2-154.4c0.4,0,0.8-0.1,1.2-0.5c0.4-0.3,0.7-0.6,1-0.9c0,0,0,0,0,0c0,0,0,0,0,0c0.1-0.1,0.1-0.1,0.2-0.2
					c0.3-0.3,0.6-0.7,1-0.7c0.3,0,0.6,0.3,1,0.7c0.1,0.1,0.1,0.1,0.2,0.2c0,0,0,0,0.1,0.1c0,0,0,0,0,0c0.3,0.3,0.6,0.7,1,0.9
					c0.4,0.3,0.8,0.5,1.2,0.5c0.3,0,0.6-0.1,0.9-0.2l0.1-0.1l-1.1-1l0,0c-0.2,0-0.3-0.1-0.5-0.2c-0.2-0.1-0.4-0.3-0.6-0.5l-0.3-0.3
					c-0.4-0.4-0.8-0.8-1.4-1.1c0,0-0.8-0.1-1.3,0c-0.4,0.2-1,0.7-1.3,1.1c-0.1,0.1-0.1,0.1-0.1,0.1l-0.2,0.2
					c-0.2,0.2-0.4,0.4-0.6,0.5c-0.2,0.1-0.4,0.2-0.5,0.2l0,0l-1.1,1l0.1,0.1C98.6-154.5,98.9-154.4,99.2-154.4z"/>
				<path class="st1" d="M96.5-152.7c0.2,0.1,0.3,0.2,0.4,0.3l0,0c0.1,0.1,0.2,0.3,0.4,0.4c0.1,0.2,0.3,0.4,0.5,0.5
					c0.4,0.4,0.9,0.7,1.5,0.7c0.4,0,0.8-0.1,1.2-0.5c0.4-0.2,0.7-0.6,1-0.9l0.1-0.1c0,0,0,0,0,0c0,0,0,0,0,0
					c0.1-0.1,0.1-0.1,0.2-0.2c0.3-0.3,0.6-0.6,1-0.6c0.3,0,0.6,0.3,1,0.6c0.1,0.1,0.1,0.1,0.2,0.2c0,0,0,0.1,0.1,0.1l0.1,0.1
					c0.3,0.3,0.6,0.6,0.9,0.8c0.4,0.3,0.8,0.5,1.2,0.5c0.9,0,1.5-0.7,2-1.3c0.1-0.1,0.2-0.3,0.3-0.4l0,0c0.1-0.1,0.2-0.2,0.4-0.4
					l0.1-0.1l-0.9-0.9l-0.1,0.1c-0.1,0.1-0.3,0.2-0.4,0.3c0,0-0.1,0.1-0.1,0.1c-0.1,0.1-0.3,0.3-0.3,0.4l0,0
					c-0.4,0.4-0.7,0.8-1.1,0.8l0,0c-0.2,0-0.4-0.1-0.6-0.2c-0.2-0.2-0.4-0.4-0.7-0.6c0-0.1-0.1-0.1-0.1-0.1l-0.1-0.1
					c-0.4-0.4-0.8-0.8-1.3-1.1c-0.5-0.1-1-0.1-1.3,0c-0.6,0.2-1,0.7-1.3,1.1l-0.1,0.1c-0.1,0-0.1,0.1-0.1,0.1
					c-0.2,0.2-0.5,0.5-0.7,0.6c-0.2,0.2-0.4,0.2-0.6,0.2l0,0c-0.3,0-0.7-0.4-1-0.8l0,0c-0.1-0.1-0.2-0.2-0.3-0.4c0,0,0-0.1-0.1-0.1
					l0,0c-0.1-0.1-0.2-0.2-0.4-0.3l-0.1-0.1L96.5-152.7L96.5-152.7z"/>
				<path class="st1" d="M96.5-149c0.1,0.1,0.3,0.2,0.4,0.3l0.4,0.4c0.5,0.6,1.1,1.2,2,1.2c0.4,0,0.8-0.1,1.2-0.5
					c0.4-0.3,0.7-0.6,1-0.9c0,0,0,0,0,0c0,0,0,0,0,0c0.1-0.1,0.1-0.1,0.2-0.2c0.3-0.3,0.6-0.7,1-0.7c0.3,0,0.7,0.3,1,0.7
					c0.1,0.1,0.1,0.1,0.2,0.2c0,0,0,0,0.1,0.1c0,0,0,0,0,0.1c0.3,0.3,0.6,0.7,1,0.9c0.4,0.3,0.8,0.5,1.2,0.5c0.9,0,1.5-0.7,2-1.2
					c0.1-0.1,0.2-0.3,0.3-0.4l0,0c0.1-0.1,0.3-0.3,0.4-0.3l0.2-0.2c0.2-0.1,0.4-0.2,0.6-0.2c0.6,0,1.1,0.5,1.6,1.1
					c0.6,0.6,1.3,1.3,2.1,1.3c0.3,0,0.6-0.1,0.9-0.2l0.1-0.1l-1-1l0,0c-0.3,0-0.7-0.3-1.1-0.7c-0.1-0.1-0.2-0.2-0.4-0.4
					c-0.6-0.6-1.3-1.3-2.3-1.3c-0.4,0-0.8,0.1-1.2,0.4l0,0c-0.3,0.2-0.5,0.4-0.8,0.7c0,0,0,0-0.1,0.1c-0.1,0.1-0.2,0.3-0.3,0.4
					c-0.4,0.4-0.7,0.8-1.1,0.8l0,0c-0.2,0-0.4-0.1-0.6-0.2c-0.2-0.1-0.3-0.3-0.5-0.4c-0.1-0.1-0.3-0.3-0.4-0.4l-0.1-0.1
					c-0.4-0.4-0.7-0.8-1.2-0.9c-0.3-0.1-0.9-0.2-1.3,0c-0.6,0.3-1,0.7-1.3,1c-0.1,0.1-0.2,0.1-0.2,0.2c-0.2,0.2-0.4,0.5-0.7,0.6
					c-0.2,0.2-0.4,0.2-0.6,0.2h0c-0.3,0-0.7-0.4-1.1-0.8c-0.1-0.1-0.2-0.2-0.3-0.4c0,0,0,0-0.1-0.1c-0.3-0.3-0.5-0.5-0.8-0.6l-0.1,0
					c-0.4-0.2-0.8-0.3-1.2-0.3c-1.1,0-1.9,0.8-2.5,1.4c-0.4,0.4-0.9,0.9-1.2,0.9l0,0l-1,1l0.1,0.1c0.3,0.2,0.6,0.2,0.9,0.2
					c0.9,0,1.5-0.6,2.1-1.3c0.5-0.6,1.1-1.1,1.6-1.1c0.2,0,0.4,0.1,0.6,0.2L96.5-149z"/>
				<path class="st1" d="M112.4-145.3c-0.1-0.1-0.2-0.2-0.4-0.4c-0.6-0.6-1.3-1.3-2.3-1.3c-0.4,0-0.7,0.1-1,0.3l-0.2,0.1
					c-0.3,0.2-0.5,0.4-0.8,0.7c0,0,0,0,0,0c0,0,0,0,0,0l-0.1,0.1c-0.1,0.1-0.2,0.2-0.3,0.3l0,0c-0.4,0.4-0.7,0.8-1,0.8l0,0
					c-0.2,0-0.4-0.1-0.6-0.2c-0.2-0.2-0.4-0.4-0.7-0.6c0-0.1-0.1-0.1-0.1-0.1l-0.1-0.1c-0.1-0.1-0.1-0.1-0.2-0.2
					c-0.3-0.4-0.7-0.8-1.2-0.9c-0.3-0.1-1-0.1-1.3,0c-0.5,0.2-0.9,0.6-1.2,0.9l-0.1,0.1l-0.1,0.1c-0.1,0-0.1,0.1-0.1,0.1
					c-0.2,0.2-0.5,0.5-0.7,0.6c-0.2,0.2-0.4,0.2-0.6,0.2l0,0c-0.3,0-0.7-0.4-1-0.8l0,0c-0.1-0.1-0.2-0.2-0.3-0.3l-0.1-0.1
					c0,0,0,0,0-0.1l0,0c0,0,0-0.1-0.1-0.1c-0.2-0.2-0.5-0.4-0.7-0.6l-0.2-0.1c-0.4-0.2-0.7-0.3-1-0.3c-1.1,0-1.9,0.8-2.5,1.4
					c-1,0.9-1.5,1-1.5,1l1,1l0.1,0c0.5-0.2,0.9-0.6,1.3-1c0.5-0.6,1.1-1.1,1.6-1.1c0.2,0,0.4,0.1,0.6,0.2l0.2,0.2
					c0.1,0.1,0.2,0.2,0.3,0.3l0.1,0.1c0.1,0.1,0.2,0.3,0.3,0.4c0.5,0.6,1.1,1.2,2,1.2c0.4,0,0.8-0.1,1.2-0.5c0.4-0.3,0.7-0.6,1-0.9
					c0,0,0,0,0,0c0,0,0,0,0,0c0.1-0.1,0.1-0.1,0.2-0.2c0.3-0.3,0.6-0.6,1-0.6c0.3,0,0.6,0.2,0.9,0.5c0,0,0.1,0.1,0.1,0.1
					c0.1,0.1,0.1,0.1,0.2,0.2c0,0,0.1,0.1,0.1,0.1c0.3,0.3,0.6,0.7,1,0.9c0.4,0.3,0.8,0.5,1.2,0.5c0.9,0,1.5-0.7,2-1.2
					c0.1-0.1,0.2-0.3,0.3-0.4c0,0,0,0,0,0l0.1-0.1c0.1-0.1,0.2-0.2,0.3-0.3l0.2-0.2c0.2-0.1,0.4-0.2,0.6-0.2c0.5,0,1,0.4,1.5,0.9
					c0.5,0.4,0.9,1,1.5,1.2l0.1,0l1-1C113.8-144.6,113.1-144.6,112.4-145.3z"/>
				<path class="st1" d="M109.7-143.3c-0.4,0-0.8,0.1-1.2,0.4l0,0c-0.3,0.2-0.6,0.4-0.8,0.7c0,0,0,0-0.1,0.1
					c-0.1,0.1-0.2,0.3-0.3,0.4l0,0c-0.4,0.4-0.7,0.8-1.1,0.8l0,0c-0.2,0-0.4-0.1-0.6-0.2c-0.1-0.1-0.3-0.3-0.4-0.4
					c-0.1-0.2-0.3-0.3-0.4-0.4c-0.1-0.1-0.1-0.1-0.2-0.2c-0.3-0.4-0.7-0.8-1.2-0.9c-0.3-0.1-1-0.1-1.3,0c-0.5,0.2-0.9,0.6-1.3,1
					l-0.1,0.1c-0.1,0.1-0.2,0.1-0.2,0.2c-0.2,0.2-0.5,0.5-0.7,0.6c-0.2,0.2-0.4,0.2-0.6,0.2l0,0c-0.3,0-0.7-0.4-1.1-0.8
					c-0.1-0.1-0.2-0.2-0.3-0.4c0,0,0,0-0.1-0.1c-0.2-0.2-0.5-0.4-0.8-0.6l-0.1,0c-0.4-0.2-0.8-0.4-1.2-0.3c-0.8,0-1.4,0.4-1.8,0.8
					l-0.1,0.1l0.9,0.9l0.1-0.1c0.3-0.3,0.6-0.4,0.9-0.4c0.2,0,0.4,0.1,0.6,0.2l0.2,0.2c0.1,0.1,0.3,0.2,0.4,0.4l0,0
					c0.1,0.1,0.2,0.3,0.4,0.4c0.5,0.6,1.1,1.2,2,1.2c0.4,0,0.8-0.1,1.2-0.4c0.4-0.2,0.7-0.6,1-0.9l0.1-0.1c0,0,0,0,0,0c0,0,0,0,0,0
					c0.1-0.1,0.1-0.1,0.2-0.2c0.3-0.3,0.6-0.6,1-0.6c0.3,0,0.6,0.3,1,0.6c0.1,0.1,0.1,0.1,0.2,0.2c0,0,0,0.1,0.1,0.1l0,0
					c0.3,0.3,0.6,0.6,1,0.9c0.4,0.3,0.8,0.4,1.2,0.4c0.9,0,1.5-0.7,2-1.2l0.3-0.4l0,0c0.1-0.1,0.3-0.3,0.4-0.3l0.2-0.2
					c0.2-0.1,0.4-0.2,0.6-0.2c0.3,0,0.6,0.1,0.9,0.4l0.1,0.1l0.9-0.9l-0.1-0.1C110.9-143,110.4-143.3,109.7-143.3z"/>
				<path class="st1" d="M105.6-137.5c-0.2-0.1-0.4-0.3-0.6-0.5l-0.3-0.3c-0.1-0.1-0.1-0.1-0.2-0.2c-0.3-0.4-0.7-0.8-1.2-0.9
					c-0.3-0.1-1-0.1-1.3,0c-0.5,0.2-0.9,0.6-1.3,1l-0.4,0.4c-0.2,0.2-0.4,0.4-0.6,0.5c-0.2,0.2-0.4,0.2-0.6,0.2l-0.3,0l1.1,1.1
					l0.1,0c0.1-0.1,0.2-0.1,0.3-0.2c0.4-0.3,0.7-0.6,1-0.9c0,0,0.1-0.1,0.1-0.1c0.1-0.1,0.1-0.1,0.2-0.2c0.3-0.3,0.6-0.7,1-0.7
					c0.3,0,0.6,0.3,1,0.6c0.1,0.1,0.1,0.1,0.2,0.2l0,0c0,0,0,0,0.1,0.1c0.3,0.3,0.6,0.7,1,0.9c0.1,0.1,0.2,0.2,0.4,0.2l0.1,0
					l1.1-1.1l-0.3,0C106-137.3,105.8-137.4,105.6-137.5z"/>
				<path class="st1" d="M103.3-135.7c-0.2-0.1-0.7-0.2-1.3,0c-0.3,0.1-0.6,0.3-0.9,0.6l-0.1,0.1l0.9,0.9l0.1-0.1
					c0.2-0.1,0.4-0.3,0.5-0.3c0.2,0,0.3,0.1,0.5,0.3l0.2,0.1l0.9-0.9l-0.1-0.1C104-135.4,103.7-135.6,103.3-135.7z"/>
			</g>
			<path class="st1" d="M185-237.7L185-237.7c0-4.7,3.8-8.4,8.4-8.4h0c4.7,0,8.4,3.8,8.4,8.4v0c0,4.7-3.8,8.4-8.4,8.4h0
				C188.8-229.3,185-233.1,185-237.7z"/>
			<path class="st1" d="M94.3-237.7L94.3-237.7c0-4.7,3.8-8.4,8.4-8.4h0c4.7,0,8.4,3.8,8.4,8.4v0c0,4.7-3.8,8.4-8.4,8.4h0
				C98-229.3,94.3-233.1,94.3-237.7z"/>
			<path class="st1" d="M139.6-146L139.6-146c0-4.7,3.8-8.4,8.4-8.4h0c4.7,0,8.4,3.8,8.4,8.4v0c0,4.7-3.8,8.4-8.4,8.4h0
				C143.4-137.6,139.6-141.4,139.6-146z"/>
			
				<rect x="139.6" y="-200.3" transform="matrix(-0.7071 -0.7071 0.7071 -0.7071 388.4741 -222.8763)" class="st1" width="16.9" height="16.9"/>
			
				<rect x="3.5" y="-246.2" transform="matrix(-1.238955e-08 -1 1 -1.238955e-08 249.6918 -225.7849)" class="st1" width="16.9" height="16.9"/>
			<path class="st1" d="M48.9-146L48.9-146c0-4.7,3.8-8.4,8.4-8.4h0c4.7,0,8.4,3.8,8.4,8.4v0c0,4.7-3.8,8.4-8.4,8.4h0
				C52.7-137.6,48.9-141.4,48.9-146z"/>
			
				<rect x="48.9" y="-108.7" transform="matrix(-0.7071 -0.7071 0.7071 -0.7071 168.7207 -130.5226)" class="st1" width="16.9" height="16.9"/>
			
				<rect x="185" y="-108.7" transform="matrix(0.7071 -0.7071 0.7071 0.7071 127.5162 107.4425)" class="st1" width="16.9" height="16.9"/>
			
				<rect x="3.5" y="-154.5" transform="matrix(0.7071 -0.7071 0.7071 0.7071 106.7734 -34.3244)" class="st1" width="16.9" height="16.9"/>
			<path class="st1" d="M94.3-54.4L94.3-54.4c0-4.7,3.8-8.4,8.4-8.4h0c4.7,0,8.4,3.8,8.4,8.4v0c0,4.7-3.8,8.4-8.4,8.4h0
				C98-45.9,94.3-49.7,94.3-54.4z"/>
			<path class="st1" d="M185-54.4L185-54.4c0-4.7,3.8-8.4,8.4-8.4h0c4.7,0,8.4,3.8,8.4,8.4v0c0,4.7-3.8,8.4-8.4,8.4h0
				C188.8-45.9,185-49.7,185-54.4z"/>
			<polygon class="st1" points="203.2,-137.6 193.5,-154.5 183.7,-137.6 			"/>
			<polygon class="st1" points="21.7,-183.4 12,-200.3 2.2,-183.4 			"/>
			<polygon class="st1" points="112.5,-108.7 102.7,-91.8 92.9,-108.7 			"/>
			<polygon class="st1" points="157.8,-246.2 148.1,-229.3 138.3,-246.2 			"/>
			<polygon class="st1" points="112.5,-200.3 102.7,-183.4 92.9,-200.3 			"/>
			<polygon class="st1" points="21.7,-62.8 12,-45.9 2.2,-62.8 			"/>
			<polygon class="st1" points="157.8,-45.9 148.1,-62.8 138.3,-45.9 			"/>
			<g>
				<circle class="st1" cx="141.6" cy="-100.3" r="2"/>
				<path class="st1" d="M143.6-93.8c0,0.2,0,0.5-0.1,0.7c-0.5-0.3-1-0.7-1.4-1.1c-0.4-0.4-0.7-0.8-1-1.3c0-0.1-0.1-0.1-0.1-0.2
					c0.2-0.1,0.5-0.1,0.7-0.1C142.7-95.8,143.6-94.9,143.6-93.8z"/>
				<path class="st1" d="M143.6-106.6c0,1.1-0.9,2-2,2c-0.2,0-0.5,0-0.7-0.1c0.3-0.4,0.6-0.8,0.9-1.2c0.4-0.4,0.7-0.7,1.2-1.1
					c0.1-0.1,0.3-0.2,0.5-0.3C143.6-107.1,143.6-106.9,143.6-106.6z"/>
				<circle class="st1" cx="154.6" cy="-100.3" r="2"/>
				<path class="st1" d="M148.1-102.3c-1.1,0-2,0.9-2,2c0,1.1,0.9,2,2,2s2-0.9,2-2C150.1-101.4,149.2-102.3,148.1-102.3z"/>
				<path class="st1" d="M152.5-93.8c0,0.2,0,0.5,0.1,0.7c0.5-0.3,1-0.7,1.4-1.1c0.4-0.4,0.7-0.8,1-1.3c0-0.1,0.1-0.1,0.1-0.2
					c-0.2-0.1-0.5-0.1-0.7-0.1C153.5-95.8,152.5-94.9,152.5-93.8z"/>
				<path class="st1" d="M148.1-95.8c-1.1,0-2,0.9-2,2c0,1.1,0.9,2,2,2s2-0.9,2-2C150.1-94.9,149.2-95.8,148.1-95.8z"/>
				<path class="st1" d="M152.5-106.6c0,1.1,0.9,2,2,2c0.2,0,0.5,0,0.7-0.1c-0.3-0.4-0.6-0.8-0.9-1.2c-0.4-0.4-0.7-0.7-1.2-1.1
					c-0.1-0.1-0.3-0.2-0.5-0.3C152.6-107.1,152.5-106.9,152.5-106.6z"/>
				<path class="st1" d="M148.1-108.6c-1.1,0-2,0.9-2,2c0,1.1,0.9,2,2,2s2-0.9,2-2C150.1-107.7,149.2-108.6,148.1-108.6z"/>
			</g>
			<g>
				<circle class="st1" cx="187" cy="-191.9" r="2"/>
				<path class="st1" d="M189-185.5c0,0.2,0,0.5-0.1,0.7c-0.5-0.3-1-0.7-1.4-1.1c-0.4-0.4-0.7-0.8-1-1.3c0-0.1-0.1-0.1-0.1-0.2
					c0.2-0.1,0.5-0.1,0.7-0.1C188.1-187.5,189-186.6,189-185.5z"/>
				<path class="st1" d="M189-198.3c0,1.1-0.9,2-2,2c-0.2,0-0.5,0-0.7-0.1c0.3-0.4,0.6-0.8,0.9-1.2c0.4-0.4,0.7-0.7,1.2-1.1
					c0.1-0.1,0.3-0.2,0.5-0.3C188.9-198.8,189-198.5,189-198.3z"/>
				<circle class="st1" cx="199.9" cy="-191.9" r="2"/>
				<path class="st1" d="M193.5-193.9c-1.1,0-2,0.9-2,2c0,1.1,0.9,2,2,2c1.1,0,2-0.9,2-2C195.5-193.1,194.6-193.9,193.5-193.9z"/>
				<path class="st1" d="M197.9-185.5c0,0.2,0,0.5,0.1,0.7c0.5-0.3,1-0.7,1.4-1.1c0.4-0.4,0.7-0.8,1-1.3c0-0.1,0.1-0.1,0.1-0.2
					c-0.2-0.1-0.5-0.1-0.7-0.1C198.8-187.5,197.9-186.6,197.9-185.5z"/>
				<path class="st1" d="M193.5-187.5c-1.1,0-2,0.9-2,2c0,1.1,0.9,2,2,2c1.1,0,2-0.9,2-2C195.5-186.6,194.6-187.5,193.5-187.5z"/>
				<path class="st1" d="M197.9-198.3c0,1.1,0.9,2,2,2c0.2,0,0.5,0,0.7-0.1c-0.3-0.4-0.6-0.8-0.9-1.2c-0.4-0.4-0.7-0.7-1.2-1.1
					c-0.1-0.1-0.3-0.2-0.5-0.3C198-198.8,197.9-198.5,197.9-198.3z"/>
				<path class="st1" d="M193.5-200.3c-1.1,0-2,0.9-2,2c0,1.1,0.9,2,2,2c1.1,0,2-0.9,2-2C195.5-199.4,194.6-200.3,193.5-200.3z"/>
			</g>
			<g>
				<circle class="st1" cx="5.5" cy="-100.3" r="2"/>
				<path class="st1" d="M7.5-93.8c0,0.2,0,0.5-0.1,0.7c-0.5-0.3-1-0.7-1.4-1.1c-0.4-0.4-0.7-0.8-1-1.3c0-0.1-0.1-0.1-0.1-0.2
					c0.2-0.1,0.5-0.1,0.7-0.1C6.6-95.8,7.5-94.9,7.5-93.8z"/>
				<path class="st1" d="M7.5-106.6c0,1.1-0.9,2-2,2c-0.2,0-0.5,0-0.7-0.1c0.3-0.4,0.6-0.8,0.9-1.2c0.4-0.4,0.7-0.7,1.2-1.1
					c0.1-0.1,0.3-0.2,0.5-0.3C7.4-107.1,7.5-106.9,7.5-106.6z"/>
				<circle class="st1" cx="18.4" cy="-100.3" r="2"/>
				<path class="st1" d="M12-102.3c-1.1,0-2,0.9-2,2c0,1.1,0.9,2,2,2s2-0.9,2-2C14-101.4,13.1-102.3,12-102.3z"/>
				<path class="st1" d="M16.4-93.8c0,0.2,0,0.5,0.1,0.7c0.5-0.3,1-0.7,1.4-1.1c0.4-0.4,0.7-0.8,1-1.3c0-0.1,0.1-0.1,0.1-0.2
					c-0.2-0.1-0.5-0.1-0.7-0.1C17.3-95.8,16.4-94.9,16.4-93.8z"/>
				<path class="st1" d="M12-95.8c-1.1,0-2,0.9-2,2c0,1.1,0.9,2,2,2s2-0.9,2-2C14-94.9,13.1-95.8,12-95.8z"/>
				<path class="st1" d="M16.4-106.6c0,1.1,0.9,2,2,2c0.2,0,0.5,0,0.7-0.1c-0.3-0.4-0.6-0.8-0.9-1.2c-0.4-0.4-0.7-0.7-1.2-1.1
					c-0.1-0.1-0.3-0.2-0.5-0.3C16.5-107.1,16.4-106.9,16.4-106.6z"/>
				<path class="st1" d="M12-108.6c-1.1,0-2,0.9-2,2c0,1.1,0.9,2,2,2s2-0.9,2-2C14-107.7,13.1-108.6,12-108.6z"/>
			</g>
			
				<rect x="230.4" y="-246.2" transform="matrix(-1.238960e-08 -1 1 -1.238960e-08 476.5658 1.0891)" class="st1" width="16.9" height="16.9"/>
			
				<rect x="230.4" y="-154.5" transform="matrix(0.7071 -0.7071 0.7071 0.7071 173.2233 126.0997)" class="st1" width="16.9" height="16.9"/>
			<polygon class="st1" points="248.6,-183.4 238.8,-200.3 229.1,-183.4 			"/>
			<polygon class="st1" points="248.6,-62.8 238.8,-45.9 229.1,-62.8 			"/>
			<g>
				<circle class="st1" cx="232.4" cy="-100.3" r="2"/>
				<path class="st1" d="M234.4-93.8c0,0.2,0,0.5-0.1,0.7c-0.5-0.3-1-0.7-1.4-1.1c-0.4-0.4-0.7-0.8-1-1.3c0-0.1-0.1-0.1-0.1-0.2
					c0.2-0.1,0.5-0.1,0.7-0.1C233.4-95.8,234.4-94.9,234.4-93.8z"/>
				<path class="st1" d="M234.4-106.6c0,1.1-0.9,2-2,2c-0.2,0-0.5,0-0.7-0.1c0.3-0.4,0.6-0.8,0.9-1.2c0.4-0.4,0.7-0.7,1.2-1.1
					c0.1-0.1,0.3-0.2,0.5-0.3C234.3-107.1,234.4-106.9,234.4-106.6z"/>
				<circle class="st1" cx="245.3" cy="-100.3" r="2"/>
				<path class="st1" d="M238.8-102.3c-1.1,0-2,0.9-2,2c0,1.1,0.9,2,2,2c1.1,0,2-0.9,2-2C240.8-101.4,239.9-102.3,238.8-102.3z"/>
				<path class="st1" d="M243.3-93.8c0,0.2,0,0.5,0.1,0.7c0.5-0.3,1-0.7,1.4-1.1c0.4-0.4,0.7-0.8,1-1.3c0-0.1,0.1-0.1,0.1-0.2
					c-0.2-0.1-0.5-0.1-0.7-0.1C244.2-95.8,243.3-94.9,243.3-93.8z"/>
				<path class="st1" d="M238.8-95.8c-1.1,0-2,0.9-2,2c0,1.1,0.9,2,2,2c1.1,0,2-0.9,2-2C240.8-94.9,239.9-95.8,238.8-95.8z"/>
				<path class="st1" d="M243.3-106.6c0,1.1,0.9,2,2,2c0.2,0,0.5,0,0.7-0.1c-0.3-0.4-0.6-0.8-0.9-1.2c-0.4-0.4-0.7-0.7-1.2-1.1
					c-0.1-0.1-0.3-0.2-0.5-0.3C243.3-107.1,243.3-106.9,243.3-106.6z"/>
				<path class="st1" d="M238.8-108.6c-1.1,0-2,0.9-2,2c0,1.1,0.9,2,2,2c1.1,0,2-0.9,2-2C240.8-107.7,239.9-108.6,238.8-108.6z"/>
			</g>
			<polygon class="st1" points="67.1,-0.1 57.3,-17 47.6,-0.1 			"/>
			<path class="st1" d="M185-8.5L185-8.5c0-4.7,3.8-8.4,8.4-8.4h0c4.7,0,8.4,3.8,8.4,8.4v0c0,4.7-3.8,8.4-8.4,8.4h0
				C188.8-0.1,185-3.9,185-8.5z"/>
			<path class="st1" d="M94.3-8.5L94.3-8.5c0-4.7,3.8-8.4,8.4-8.4h0c4.7,0,8.4,3.8,8.4,8.4v0c0,4.7-3.8,8.4-8.4,8.4h0
				C98-0.1,94.3-3.9,94.3-8.5z"/>
			
				<rect x="3.5" y="-17" transform="matrix(-1.238955e-08 -1 1 -1.238955e-08 20.4686 3.4382)" class="st1" width="16.9" height="16.9"/>
			<polygon class="st1" points="157.8,-17 148.1,-0.1 138.3,-17 			"/>
			<g>
				<defs>
					<rect id="SVGID_1_" x="12" y="-237.7" width="226.9" height="229.3"/>
				</defs>
				<clipPath id="SVGID_2_">
					<use xlink:href="#SVGID_1_"  style="overflow:visible;"/>
				</clipPath>
				
					<rect x="230.4" y="-16.9" transform="matrix(-1.238960e-08 -1 1 -1.238960e-08 247.2739 230.381)" class="st2" width="16.9" height="16.9"/>
			</g>
		</g>
		<g>
			
				<rect x="3.5" y="-246.2" transform="matrix(-1.238960e-08 -1 1 -1.238960e-08 249.6835 -225.7933)" class="st1" width="16.9" height="16.9"/>
			
				<rect x="3.5" y="-154.5" transform="matrix(0.7071 -0.7071 0.7071 0.7071 106.771 -34.3303)" class="st1" width="16.9" height="16.9"/>
			<polygon class="st1" points="21.7,-183.4 11.9,-200.3 2.2,-183.4 			"/>
			<polygon class="st1" points="21.7,-62.8 11.9,-45.9 2.2,-62.8 			"/>
			<g>
				<circle class="st1" cx="18.4" cy="-100.3" r="2"/>
				<path class="st1" d="M11.9-102.3c-1.1,0-2,0.9-2,2c0,1.1,0.9,2,2,2s2-0.9,2-2C13.9-101.4,13.1-102.3,11.9-102.3z"/>
				<path class="st1" d="M16.4-93.8c0,0.2,0,0.5,0.1,0.7c0.5-0.3,1-0.7,1.4-1.1c0.4-0.4,0.7-0.8,1-1.3c0-0.1,0.1-0.1,0.1-0.2
					c-0.2-0.1-0.5-0.1-0.7-0.1C17.3-95.8,16.4-94.9,16.4-93.8z"/>
				<path class="st1" d="M11.9-95.8c-1.1,0-2,0.9-2,2c0,1.1,0.9,2,2,2s2-0.9,2-2C13.9-94.9,13.1-95.8,11.9-95.8z"/>
				<path class="st1" d="M16.4-106.6c0,1.1,0.9,2,2,2c0.2,0,0.5,0,0.7-0.1c-0.3-0.4-0.6-0.8-0.9-1.2c-0.4-0.4-0.7-0.7-1.2-1.1
					c-0.1-0.1-0.3-0.2-0.5-0.3C16.5-107.1,16.4-106.9,16.4-106.6z"/>
				<path class="st1" d="M11.9-108.6c-1.1,0-2,0.9-2,2c0,1.1,0.9,2,2,2s2-0.9,2-2C13.9-107.7,13.1-108.6,11.9-108.6z"/>
			</g>
		</g>
		<g>
			
				<rect x="230.4" y="-246.2" transform="matrix(-1.238955e-08 -1 1 -1.238955e-08 476.6324 1.0392)" class="st1" width="16.9" height="16.9"/>
		</g>
		<g>
			<polygon class="st1" points="67.1,-229.4 57.3,-246.2 47.6,-229.4 			"/>
			<path class="st1" d="M185-237.8L185-237.8c0-4.7,3.8-8.4,8.4-8.4h0c4.7,0,8.4,3.8,8.4,8.4v0c0,4.7-3.8,8.4-8.4,8.4h0
				C188.8-229.4,185-233.1,185-237.8z"/>
			<path class="st1" d="M94.3-237.8L94.3-237.8c0-4.7,3.8-8.4,8.4-8.4h0c4.7,0,8.4,3.8,8.4,8.4v0c0,4.7-3.8,8.4-8.4,8.4h0
				C98-229.4,94.3-233.1,94.3-237.8z"/>
			
				<rect x="3.5" y="-246.2" transform="matrix(-1.238955e-08 -1 1 -1.238955e-08 249.75 -225.8431)" class="st1" width="16.9" height="16.9"/>
			<polygon class="st1" points="157.8,-246.2 148.1,-229.4 138.3,-246.2 			"/>
		</g>
	</g>
</pattern>
<g class="st3">
	<defs>
		<rect id="SVGID_3_" class="st3" width="1920" height="121"/>
	</defs>
	<clipPath id="SVGID_4_">
		<use xlink:href="#SVGID_3_"  style="overflow:visible;"/>
	</clipPath>
	<pattern  id="SVGID_5_" xlink:href="#New_Pattern" patternTransform="matrix(1 0 0 1 255.1086 -155.4442)"  class="st3">
	</pattern>
	<rect x="-2448.9" y="-1346.3" class="st4" width="6405.5" height="1905"/>
</g>
</svg>
