<?xml version="1.0" encoding="UTF-8" standalone="no"?>
<!-- Generator: Adobe Illustrator 19.1.0, SVG Export Plug-In . SVG Version: 6.00 Build 0)  -->

<svg
   xmlns:dc="http://purl.org/dc/elements/1.1/"
   xmlns:cc="http://creativecommons.org/ns#"
   xmlns:rdf="http://www.w3.org/1999/02/22-rdf-syntax-ns#"
   xmlns:svg="http://www.w3.org/2000/svg"
   xmlns="http://www.w3.org/2000/svg"
   xmlns:sodipodi="http://sodipodi.sourceforge.net/DTD/sodipodi-0.dtd"
   xmlns:inkscape="http://www.inkscape.org/namespaces/inkscape"
   version="1.1"
   id="Capa_1"
   x="0px"
   y="0px"
   viewBox="0 0 20 20"
   xml:space="preserve"
   inkscape:version="0.91 r13725"
   sodipodi:docname="icon_basket.svg"
   width="20"
   height="20"><metadata
     id="metadata41"><rdf:RDF><cc:Work
         rdf:about=""><dc:format>image/svg+xml</dc:format><dc:type
           rdf:resource="http://purl.org/dc/dcmitype/StillImage" /><dc:title></dc:title></cc:Work></rdf:RDF></metadata><defs
     id="defs39" /><sodipodi:namedview
     pagecolor="#ffffff"
     bordercolor="#666666"
     borderopacity="1"
     objecttolerance="10"
     gridtolerance="10"
     guidetolerance="10"
     inkscape:pageopacity="0"
     inkscape:pageshadow="2"
     inkscape:window-width="1366"
     inkscape:window-height="706"
     id="namedview37"
     showgrid="false"
     inkscape:zoom="11.313708"
     inkscape:cx="25.89616"
     inkscape:cy="13.893342"
     inkscape:window-x="-8"
     inkscape:window-y="2"
     inkscape:window-maximized="1"
     inkscape:current-layer="Capa_1" /><g
     id="g3"
     transform="matrix(0.04101216,0,0,0.04101216,-0.13429547,0.06727873)"
     style="fill:#ffffff"><path
       d="m 146.069,320.369 268.1,0 c 30.4,0 55.2,-24.8 55.2,-55.2 l 0,-112.8 c 0,-0.1 0,-0.3 0,-0.4 0,-0.3 0,-0.5 0,-0.8 0,-0.2 0,-0.4 -0.1,-0.6 0,-0.2 -0.1,-0.5 -0.1,-0.7 0,-0.2 -0.1,-0.4 -0.1,-0.6 -0.1,-0.2 -0.1,-0.4 -0.2,-0.7 -0.1,-0.2 -0.1,-0.4 -0.2,-0.6 -0.1,-0.2 -0.1,-0.4 -0.2,-0.6 -0.1,-0.2 -0.2,-0.4 -0.3,-0.7 -0.1,-0.2 -0.2,-0.4 -0.3,-0.5 -0.1,-0.2 -0.2,-0.4 -0.3,-0.6 -0.1,-0.2 -0.2,-0.3 -0.3,-0.5 -0.1,-0.2 -0.3,-0.4 -0.4,-0.6 -0.1,-0.2 -0.2,-0.3 -0.4,-0.5 -0.1,-0.2 -0.3,-0.3 -0.4,-0.5 -0.1,-0.2 -0.3,-0.3 -0.4,-0.5 -0.1,-0.2 -0.3,-0.3 -0.4,-0.4 -0.2,-0.2 -0.3,-0.3 -0.5,-0.5 -0.2,-0.1 -0.3,-0.3 -0.5,-0.4 -0.2,-0.1 -0.4,-0.3 -0.6,-0.4 -0.2,-0.1 -0.3,-0.2 -0.5,-0.3 -0.2,-0.1 -0.4,-0.2 -0.6,-0.4 -0.2,-0.1 -0.4,-0.2 -0.6,-0.3 -0.2,-0.1 -0.4,-0.2 -0.6,-0.3 -0.2,-0.1 -0.4,-0.2 -0.6,-0.3 -0.2,-0.1 -0.4,-0.1 -0.6,-0.2 -0.2,-0.1 -0.5,-0.2 -0.7,-0.2 -0.2,0 -0.4,-0.1 -0.5,-0.1 -0.3,-0.1 -0.5,-0.1 -0.8,-0.1 -0.1,0 -0.2,-0.1 -0.4,-0.1 l -339.8,-46.9 0,-47.4 c 0,-0.5 0,-1 -0.1,-1.4 0,-0.1 0,-0.2 -0.1,-0.4 0,-0.3 -0.1,-0.6 -0.1,-0.9 -0.1,-0.3 -0.1,-0.5 -0.2,-0.8 0,-0.2 -0.1,-0.3 -0.1,-0.5 -0.1,-0.3 -0.2,-0.6 -0.3,-0.9 0,-0.1 -0.1,-0.3 -0.1,-0.4 -0.1,-0.3 -0.2,-0.5 -0.4,-0.8 -0.1,-0.1 -0.1,-0.3 -0.2,-0.4 -0.1,-0.2 -0.2,-0.4 -0.4,-0.6 -0.1,-0.2 -0.2,-0.3 -0.3,-0.5 -0.1,-0.2 -0.2,-0.3 -0.3,-0.5 -0.1,-0.2 -0.3,-0.4 -0.4,-0.6 -0.1,-0.1 -0.2,-0.2 -0.3,-0.3 -0.2,-0.2 -0.4,-0.4 -0.6,-0.6 -0.1,-0.1 -0.2,-0.2 -0.3,-0.3 -0.2,-0.2 -0.4,-0.4 -0.7,-0.6 -0.1,-0.1 -0.3,-0.2 -0.4,-0.3 -0.2,-0.2 -0.4,-0.3 -0.6,-0.5 -0.3,-0.2 -0.6,-0.4 -0.8,-0.5 -0.1,-0.1 -0.2,-0.1 -0.3,-0.2 -0.4,-0.2 -0.9,-0.4 -1.3,-0.6 l -73.7,-31 c -6.9,-2.9 -14.8,0.3 -17.7,7.2 -2.9,6.9 0.3,14.8 7.2,17.7 l 65.4,27.6 0,61.2 0,9.7 0,74.4 0,66.5 0,84 c 0,28 21,51.2 48.1,54.7 -4.9,8.2 -7.8,17.8 -7.8,28 0,30.1 24.5,54.5 54.5,54.5 30,0 54.5,-24.5 54.5,-54.5 0,-10 -2.7,-19.5 -7.5,-27.5 l 121.4,0 c -4.8,8.1 -7.5,17.5 -7.5,27.5 0,30.1 24.5,54.5 54.5,54.5 30,0 54.5,-24.5 54.5,-54.5 0,-30 -24.5,-54.5 -54.5,-54.5 l -255,0 c -15.6,0 -28.2,-12.7 -28.2,-28.2 l 0,-36.6 c 8.2,4.8 17.9,7.6 28.2,7.6 z m 67.2,111.6 c 0,15.2 -12.4,27.5 -27.5,27.5 -15.1,0 -27.5,-12.4 -27.5,-27.5 0,-15.1 12.4,-27.5 27.5,-27.5 15.1,0 27.5,12.3 27.5,27.5 z m 215.4,0 c 0,15.2 -12.4,27.5 -27.5,27.5 -15.1,0 -27.5,-12.4 -27.5,-27.5 0,-15.1 12.4,-27.5 27.5,-27.5 15.1,0 27.5,12.3 27.5,27.5 z m -14.5,-138.6 -268.1,0 c -15.6,0 -28.2,-12.7 -28.2,-28.2 l 0,-66.5 0,-74.4 0,-5 324.5,44.7 0,101.1 c 0,15.7 -12.7,28.3 -28.2,28.3 z"
       id="path5"
       inkscape:connector-curvature="0"
       style="fill:#ffffff" /></g><g
     id="g7"
     transform="translate(0,-466.569)" /><g
     id="g9"
     transform="translate(0,-466.569)" /><g
     id="g11"
     transform="translate(0,-466.569)" /><g
     id="g13"
     transform="translate(0,-466.569)" /><g
     id="g15"
     transform="translate(0,-466.569)" /><g
     id="g17"
     transform="translate(0,-466.569)" /><g
     id="g19"
     transform="translate(0,-466.569)" /><g
     id="g21"
     transform="translate(0,-466.569)" /><g
     id="g23"
     transform="translate(0,-466.569)" /><g
     id="g25"
     transform="translate(0,-466.569)" /><g
     id="g27"
     transform="translate(0,-466.569)" /><g
     id="g29"
     transform="translate(0,-466.569)" /><g
     id="g31"
     transform="translate(0,-466.569)" /><g
     id="g33"
     transform="translate(0,-466.569)" /><g
     id="g35"
     transform="translate(0,-466.569)" /></svg>