<?xml version="1.0" encoding="UTF-8" standalone="no"?>
<svg xmlns:dc="http://purl.org/dc/elements/1.1/" xmlns:cc="http://creativecommons.org/ns#" xmlns:rdf="http://www.w3.org/1999/02/22-rdf-syntax-ns#" xmlns:svg="http://www.w3.org/2000/svg" xmlns="http://www.w3.org/2000/svg" id="svg8" version="1.1" viewBox="0 0 4.9065434 5.2798226" height="19.955235" width="18.544416">
  <defs id="defs2" />
  <metadata id="metadata5">
    <rdf:RDF>
      <cc:Work rdf:about="">
        <dc:format>image/svg+xml</dc:format>
        <dc:type rdf:resource="http://purl.org/dc/dcmitype/StillImage" />
        <dc:title></dc:title>
      </cc:Work>
    </rdf:RDF>
  </metadata>
  <g transform="translate(-100.35625,-72.110089)" id="layer1">
    <g style="fill:#00b6ea;fill-opacity:1" transform="matrix(0.26458333,0,0,0.26458333,100.20514,72.092285)" id="g4523">
      <g id="g3" transform="matrix(0.04101216,0,0,0.04101216,-0.13429547,0.06727873)" style="fill:#00b6ea;fill-opacity:1">
        <path d="m 146.069,320.369 h 268.1 c 30.4,0 55.2,-24.8 55.2,-55.2 v -112.8 c 0,-0.1 0,-0.3 0,-0.4 0,-0.3 0,-0.5 0,-0.8 0,-0.2 0,-0.4 -0.1,-0.6 0,-0.2 -0.1,-0.5 -0.1,-0.7 0,-0.2 -0.1,-0.4 -0.1,-0.6 -0.1,-0.2 -0.1,-0.4 -0.2,-0.7 -0.1,-0.2 -0.1,-0.4 -0.2,-0.6 -0.1,-0.2 -0.1,-0.4 -0.2,-0.6 -0.1,-0.2 -0.2,-0.4 -0.3,-0.7 -0.1,-0.2 -0.2,-0.4 -0.3,-0.5 -0.1,-0.2 -0.2,-0.4 -0.3,-0.6 -0.1,-0.2 -0.2,-0.3 -0.3,-0.5 -0.1,-0.2 -0.3,-0.4 -0.4,-0.6 -0.1,-0.2 -0.2,-0.3 -0.4,-0.5 -0.1,-0.2 -0.3,-0.3 -0.4,-0.5 -0.1,-0.2 -0.3,-0.3 -0.4,-0.5 -0.1,-0.2 -0.3,-0.3 -0.4,-0.4 -0.2,-0.2 -0.3,-0.3 -0.5,-0.5 -0.2,-0.1 -0.3,-0.3 -0.5,-0.4 -0.2,-0.1 -0.4,-0.3 -0.6,-0.4 -0.2,-0.1 -0.3,-0.2 -0.5,-0.3 -0.2,-0.1 -0.4,-0.2 -0.6,-0.4 -0.2,-0.1 -0.4,-0.2 -0.6,-0.3 -0.2,-0.1 -0.4,-0.2 -0.6,-0.3 -0.2,-0.1 -0.4,-0.2 -0.6,-0.3 -0.2,-0.1 -0.4,-0.1 -0.6,-0.2 -0.2,-0.1 -0.5,-0.2 -0.7,-0.2 -0.2,0 -0.4,-0.1 -0.5,-0.1 -0.3,-0.1 -0.5,-0.1 -0.8,-0.1 -0.1,0 -0.2,-0.1 -0.4,-0.1 l -339.8,-46.9 v -47.4 c 0,-0.5 0,-1 -0.1,-1.4 0,-0.1 0,-0.2 -0.1,-0.4 0,-0.3 -0.1,-0.6 -0.1,-0.9 -0.1,-0.3 -0.1,-0.5 -0.2,-0.8 0,-0.2 -0.1,-0.3 -0.1,-0.5 -0.1,-0.3 -0.2,-0.6 -0.3,-0.9 0,-0.1 -0.1,-0.3 -0.1,-0.4 -0.1,-0.3 -0.2,-0.5 -0.4,-0.8 -0.1,-0.1 -0.1,-0.3 -0.2,-0.4 -0.1,-0.2 -0.2,-0.4 -0.4,-0.6 -0.1,-0.2 -0.2,-0.3 -0.3,-0.5 -0.1,-0.2 -0.2,-0.3 -0.3,-0.5 -0.1,-0.2 -0.3,-0.4 -0.4,-0.6 -0.1,-0.1 -0.2,-0.2 -0.3,-0.3 -0.2,-0.2 -0.4,-0.4 -0.6,-0.6 -0.1,-0.1 -0.2,-0.2 -0.3,-0.3 -0.2,-0.2 -0.4,-0.4 -0.7,-0.6 -0.1,-0.1 -0.3,-0.2 -0.4,-0.3 -0.2,-0.2 -0.4,-0.3 -0.6,-0.5 -0.3,-0.2 -0.6,-0.4 -0.8,-0.5 -0.1,-0.1 -0.2,-0.1 -0.3,-0.2 -0.4,-0.2 -0.9,-0.4 -1.3,-0.6 l -73.7,-31 c -6.9,-2.9 -14.8,0.3 -17.7,7.2 -2.9,6.9 0.3,14.8 7.2,17.7 l 65.4,27.6 v 61.2 9.7 74.4 66.5 84 c 0,28 21,51.2 48.1,54.7 -4.9,8.2 -7.8,17.8 -7.8,28 0,30.1 24.5,54.5 54.5,54.5 30,0 54.5,-24.5 54.5,-54.5 0,-10 -2.7,-19.5 -7.5,-27.5 h 121.4 c -4.8,8.1 -7.5,17.5 -7.5,27.5 0,30.1 24.5,54.5 54.5,54.5 30,0 54.5,-24.5 54.5,-54.5 0,-30 -24.5,-54.5 -54.5,-54.5 h -255 c -15.6,0 -28.2,-12.7 -28.2,-28.2 v -36.6 c 8.2,4.8 17.9,7.6 28.2,7.6 z m 67.2,111.6 c 0,15.2 -12.4,27.5 -27.5,27.5 -15.1,0 -27.5,-12.4 -27.5,-27.5 0,-15.1 12.4,-27.5 27.5,-27.5 15.1,0 27.5,12.3 27.5,27.5 z m 215.4,0 c 0,15.2 -12.4,27.5 -27.5,27.5 -15.1,0 -27.5,-12.4 -27.5,-27.5 0,-15.1 12.4,-27.5 27.5,-27.5 15.1,0 27.5,12.3 27.5,27.5 z m -14.5,-138.6 h -268.1 c -15.6,0 -28.2,-12.7 -28.2,-28.2 v -66.5 -74.4 -5 l 324.5,44.7 v 101.1 c 0,15.7 -12.7,28.3 -28.2,28.3 z" id="path5" style="fill:#00b6ea;fill-opacity:1" />
      </g>
    </g>
  </g>
</svg>
