<svg id="Layer_1" data-name="Layer 1" xmlns="http://www.w3.org/2000/svg" viewBox="0 0 738.13 330.27"><defs><style>.cls-1{fill:#fff;}</style></defs><title>logogifty</title><path class="cls-1" d="M239.53,226.1V101.73h31.35V226.1Z"/><path class="cls-1" d="M293,226.1V101.73h92.66V129.8H324.35v18.12h45.8v27h-45.8V226.1Z"/><path class="cls-1" d="M436,226.1V129.8H399.39V101.73H504.07V129.8H467.32v96.3Z"/><path class="cls-1" d="M561.62,226.1V171l-46.85-69.29h35.71l27.17,41,27.34-41h34.83L593,170.31V226.1Z"/><path class="cls-1" d="M167.77,101.73a80.9,80.9,0,0,0-18.81,2.1c-11.35,2.65-23.1,7.89-31.47,15.67-12.73,11.84-19.18,27-19.18,45.66,0,18.43,6.27,33.59,19,45.61,12.72,11.84,30.45,17.78,49.26,17.78a79.39,79.39,0,0,0,29.76-5.61c9.25-3.79,16.22-8.33,21.09-13.75V155.05H185.88v39.87c-4.68,3.83-11.14,5.75-19.32,5.75a33.89,33.89,0,0,1-24.23-9.4c-6.6-6.27-9.92-14.83-9.92-25.6,0-10.47,3.5-18.81,10.47-25.26l.14-.13a33.76,33.76,0,0,1,23-8.57h47.68v-30Z"/></svg>