<svg xmlns="http://www.w3.org/2000/svg" width="160.999" height="30.99" viewBox="0 0 160.999 30.99">
  <defs>
    <style>
      .cls-1 {
        fill: #00b6ea;
      }
    </style>
  </defs>
  <g id="Group_434" data-name="Group 434" transform="translate(-925.656 -350.276)">
    <g id="Group_433" data-name="Group 433" transform="translate(981.225 350.276)">
      <path id="Path_200" data-name="Path 200" class="cls-1" d="M1118.977,376.129a4.386,4.386,0,0,0-1.083-1.062,9.342,9.342,0,0,0-2.708-1.292,11.85,11.85,0,0,0-3.552-.5,12.071,12.071,0,0,0-3.562.5,7.748,7.748,0,0,0-2.823,1.511,6.949,6.949,0,0,0-1.854,2.562,9.109,9.109,0,0,0-.677,3.646,9.815,9.815,0,0,0,.635,3.687,7.192,7.192,0,0,0,1.687,2.531,6.506,6.506,0,0,0,2.448,1.437,9.13,9.13,0,0,0,2.937.469,8.443,8.443,0,0,0,3.437-.625v.552a2.132,2.132,0,0,1-1.094,2,6.15,6.15,0,0,1-2.958.615,9.106,9.106,0,0,1-2.6-.375,11.672,11.672,0,0,1-2.25-.927,2.752,2.752,0,0,0-.74.906,2.882,2.882,0,0,0-.323,1.4,2.821,2.821,0,0,0,1.781,2.729,11.755,11.755,0,0,0,4.916.844,13.859,13.859,0,0,0,3.427-.406,8.2,8.2,0,0,0,2.792-1.291,6.481,6.481,0,0,0,1.875-2.2,6.784,6.784,0,0,0,.687-3.156V377.65A2.7,2.7,0,0,0,1118.977,376.129Zm-5.219,8.468a3.483,3.483,0,0,1-2.229.646,2.864,2.864,0,0,1-2.156-.875,4.052,4.052,0,0,1-.844-2.875,3.932,3.932,0,0,1,.844-2.7,3.238,3.238,0,0,1,2.531-.948,4.058,4.058,0,0,1,1.156.146,2.933,2.933,0,0,1,.7.271Z" transform="translate(-1102.717 -366.057)"/>
      <path id="Path_201" data-name="Path 201" class="cls-1" d="M1172.358,351.172a3.459,3.459,0,0,0-4.645,0,3.2,3.2,0,0,0,0,4.4,3.459,3.459,0,0,0,4.645,0,3.2,3.2,0,0,0,0-4.4Zm.375,8.135a1.823,1.823,0,0,0-.635-.844,2.332,2.332,0,0,0-1.01-.417,7.7,7.7,0,0,0-1.354-.1,8.91,8.91,0,0,0-1.5.125c-.5.073-.864.135-1.125.187v14a3.713,3.713,0,0,0,.229,1.4,2.016,2.016,0,0,0,.636.844,2.319,2.319,0,0,0,1.01.406,7.825,7.825,0,0,0,1.365.1,10.4,10.4,0,0,0,1.5-.115c.49-.083.864-.146,1.115-.2v-14A3.463,3.463,0,0,0,1172.734,359.306Z" transform="translate(-1146.714 -350.276)"/>
      <path id="Path_202" data-name="Path 202" class="cls-1" d="M1204.765,358.874a4.469,4.469,0,0,1,2.3-.5,10.682,10.682,0,0,1,1.635.115,13.7,13.7,0,0,1,1.365.3,2.775,2.775,0,0,0,.635-.833,2.563,2.563,0,0,0,.292-1.24,2.4,2.4,0,0,0-1.208-2.281,7.985,7.985,0,0,0-3.75-.677,11.366,11.366,0,0,0-2.969.385,6.694,6.694,0,0,0-2.427,1.188,5.542,5.542,0,0,0-1.635,2.062,6.8,6.8,0,0,0-.6,3.01v14.239a3.517,3.517,0,0,0,.229,1.4,1.93,1.93,0,0,0,.635.844,2.32,2.32,0,0,0,1.01.406,7.746,7.746,0,0,0,1.365.1,10.614,10.614,0,0,0,1.531-.1,6.642,6.642,0,0,0,1.083-.208V366.176h3.948a1.918,1.918,0,0,0,1.427-.531,2.326,2.326,0,0,0,.542-1.729,3.717,3.717,0,0,0-.2-1.26,5.192,5.192,0,0,0-.4-.948h-5.635v-1.093A1.855,1.855,0,0,1,1204.765,358.874Z" transform="translate(-1168.371 -352.667)"/>
      <path id="Path_203" data-name="Path 203" class="cls-1" d="M1254.965,379.185a5.227,5.227,0,0,1-.958.219,6.294,6.294,0,0,1-1.063.094,2.812,2.812,0,0,1-1.6-.385,1.418,1.418,0,0,1-.562-1.271v-5.2h3.125a1.934,1.934,0,0,0,1.427-.531,2.371,2.371,0,0,0,.531-1.729,4.007,4.007,0,0,0-.187-1.26,6.089,6.089,0,0,0-.4-.948h-4.5v-2.2a2.482,2.482,0,0,0-.844-2.25,4.342,4.342,0,0,0-2.365-.542,8.55,8.55,0,0,0-1.49.125c-.469.083-.833.156-1.083.219v14.728c0,2.062.542,3.552,1.635,4.468a7.015,7.015,0,0,0,4.656,1.375,5.46,5.46,0,0,0,3.458-.823,2.653,2.653,0,0,0,.979-2.135,2.592,2.592,0,0,0-.219-1.114A4.33,4.33,0,0,0,1254.965,379.185Z" transform="translate(-1200.344 -359.134)"/>
      <path id="Path_204" data-name="Path 204" class="cls-1" d="M1295.068,361.65a3.155,3.155,0,0,0-2.333-.854h-1.281l-3.854,1.3c-1.667.552-2.51,1.521-2.51,2.9a2.625,2.625,0,0,0,.521,1.719,5.1,5.1,0,0,0,1.031.958l3.437-1.062v12.864a3.515,3.515,0,0,0,.229,1.4,1.933,1.933,0,0,0,.635.844,2.32,2.32,0,0,0,1.01.406,7.742,7.742,0,0,0,1.365.1,10.151,10.151,0,0,0,1.49-.115c.5-.083.864-.146,1.125-.2V363.994A3.169,3.169,0,0,0,1295.068,361.65Z" transform="translate(-1227.854 -357.494)"/>
      <path id="Path_205" data-name="Path 205" class="cls-1" d="M1345.242,362.612a3.876,3.876,0,0,0-1.052-1.052h-11.968a2.036,2.036,0,0,0-1.479.552,2.428,2.428,0,0,0-.583,1.854,4.22,4.22,0,0,0,.2,1.312,7.447,7.447,0,0,0,.417.99h8.427l-5.021,10.291c-.385.781-.7,1.448-.927,2.01a4.167,4.167,0,0,0-.344,1.562,2.183,2.183,0,0,0,.958,2.031,4.84,4.84,0,0,0,2.51.583h.813c.281,0,.594-.011.906-.031l7.156-16.207a4.438,4.438,0,0,0,.344-1.115,5.845,5.845,0,0,0,.1-1.114A2.883,2.883,0,0,0,1345.242,362.612Z" transform="translate(-1258.779 -358.019)"/>
      <path id="Path_206" data-name="Path 206" class="cls-1" d="M1401.122,372.373a7.849,7.849,0,0,0-1.979-2,1.559,1.559,0,0,0-.156-.115,5.442,5.442,0,0,0,1.719-1.9,5.371,5.371,0,0,0,.625-2.646,5.16,5.16,0,0,0-.594-2.479,5.4,5.4,0,0,0-1.614-1.854,7.485,7.485,0,0,0-2.479-1.167.247.247,0,0,0-.083-.021,11.026,11.026,0,0,0-3.073-.4,10.476,10.476,0,0,0-3.167.448,7.434,7.434,0,0,0-2.479,1.271,6.051,6.051,0,0,0-1.614,1.958,5.338,5.338,0,0,0-.583,2.51,5.423,5.423,0,0,0,.646,2.843,7.323,7.323,0,0,0,1.583,1.8,6.35,6.35,0,0,0-1.906,1.927,5.516,5.516,0,0,0-.812,3.094,5.326,5.326,0,0,0,.6,2.51,6.086,6.086,0,0,0,1.688,1.968,7.955,7.955,0,0,0,2.635,1.271,13.7,13.7,0,0,0,6.948,0c.135-.041.281-.083.406-.135a7.542,7.542,0,0,0,2.24-1.135,5.837,5.837,0,0,0,1.687-1.968,5.435,5.435,0,0,0,.583-2.51A5.753,5.753,0,0,0,1401.122,372.373Zm-9.187-7.656a2.443,2.443,0,0,1,3.094,0,2.012,2.012,0,0,1,.552,1.479,2.092,2.092,0,0,1-.552,1.416,3.227,3.227,0,0,1-1.75.885,4.333,4.333,0,0,1-1.323-.885,1.922,1.922,0,0,1-.573-1.448A1.971,1.971,0,0,1,1391.935,364.717Zm3.427,12.093a2.6,2.6,0,0,1-1.812.636,2.661,2.661,0,0,1-1.8-.615,2.148,2.148,0,0,1-.708-1.687,2.38,2.38,0,0,1,.636-1.666,4.093,4.093,0,0,1,2.156-1.052,3.9,3.9,0,0,1,1.625,1.052,2.378,2.378,0,0,1,.6,1.666A2.141,2.141,0,0,1,1395.362,376.81Z" transform="translate(-1296.514 -356.812)"/>
    </g>
    <path id="Path_207" data-name="Path 207" class="cls-1" d="M975.031,368.6a2.508,2.508,0,0,0,.756,1.84l10.044,10.065a2.624,2.624,0,0,0,1.862.756,2.507,2.507,0,0,0,1.84-.756l14.627-14.646a6.122,6.122,0,0,0,1.319-2.067,6.306,6.306,0,0,0,.542-2.393v-8.509a2.654,2.654,0,0,0-2.619-2.618h-8.509a7.241,7.241,0,0,0-4.479,1.861l-14.627,14.606a2.624,2.624,0,0,0-.756,1.862Zm22.593-9.932a2.619,2.619,0,1,1,1.851.766,2.524,2.524,0,0,1-1.851-.766Zm0,0" transform="translate(-33.879)"/>
    <path id="Path_208" data-name="Path 208" class="cls-1" d="M950.758,366.743A2.624,2.624,0,0,0,950,368.6a2.5,2.5,0,0,0,.758,1.84L960.8,380.51a2.62,2.62,0,0,0,1.861.756,2.292,2.292,0,0,0,1.208-.287,5.855,5.855,0,0,0,1.084-.92l-9.614-9.615a2.5,2.5,0,0,1-.758-1.84,2.62,2.62,0,0,1,.758-1.862l14.626-14.6a7.241,7.241,0,0,1,4.479-1.862h-4.581a7.25,7.25,0,0,0-4.481,1.862l-14.625,14.6Zm0,0" transform="translate(-16.704)"/>
    <path id="Path_209" data-name="Path 209" class="cls-1" d="M926.414,366.743a2.624,2.624,0,0,0-.758,1.862,2.5,2.5,0,0,0,.758,1.84l10.044,10.065a2.62,2.62,0,0,0,1.861.756,2.291,2.291,0,0,0,1.208-.287,5.853,5.853,0,0,0,1.084-.92L931,370.445a2.5,2.5,0,0,1-.758-1.84,2.62,2.62,0,0,1,.758-1.862l14.626-14.6a7.241,7.241,0,0,1,4.479-1.862H945.52a7.249,7.249,0,0,0-4.481,1.862l-14.625,14.6Zm0,0"/>
  </g>
</svg>
