<svg xmlns="http://www.w3.org/2000/svg" viewBox="0 0 27 39.258">
  <defs>
    <style>
      .cls-1 {
        fill: #ffbd00;
      }
    </style>
  </defs>
  <g id="Group_79" data-name="Group 79" transform="translate(-0.028 -0.03)">
    <path id="Path_100" data-name="Path 100" class="cls-1" d="M26.7,10.463c-.755-3.894-2.635-6.988-6.233-8.853A15.159,15.159,0,0,0,11.838.129c-3.908.4-7.254,1.91-9.5,5.271a14.872,14.872,0,0,0-2.28,7.773A21.553,21.553,0,0,0,2.437,23.506,57.247,57.247,0,0,0,9.973,35.157c1.125,1.392,2.31,2.739,3.494,4.131a2.659,2.659,0,0,0,.311-.237,66.241,66.241,0,0,0,10.852-15.53C26.584,19.375,27.59,15.082,26.7,10.463ZM13.526,19.035a6.144,6.144,0,1,1,6.144-6.144A6.148,6.148,0,0,1,13.526,19.035Z" transform="translate(0 0)"/>
  </g>
</svg>
